<?xml version="1.0" encoding="UTF-8"?>
<svg xmlns="http://www.w3.org/2000/svg" version="1.1" viewBox="0 0 673.6 256">
  <defs>
    <style>
      .cls-1 {
        fill: #202020;
      }
    </style>
  </defs>
  <!-- Generator: Adobe Illustrator 28.6.0, SVG Export Plug-In . SVG Version: 1.2.0 Build 709)  -->
  <g>
    <g id="Capa_1">
      <g id="Grupo_2">
        <path id="Trazado_6" class="cls-1" d="M214.8,66.3c0-11.3,9.1-20.5,20.4-20.5,11.3,0,20.5,9.1,20.5,20.4,0,11.3-9.1,20.5-20.4,20.5-11.3,0-20.5-9.1-20.5-20.4h0"/>
        <path id="Rectángulo_6" class="cls-1" d="M222,99.8h26.7c0,0,.4,136.2.4,136.2h-26.7c0,0-.4-136.2-.4-136.2Z"/>
        <path id="Trazado_7" class="cls-1" d="M498.9,171v-4.1c-.1-40.5-20.6-72.4-63.9-72.3-43.9.1-66.2,31.6-66.1,73.5.1,40.2,25.5,71.5,67.1,71.4,26.3.2,50.6-14.2,63-37.4l-22.1-12.5c-9.9,16.3-20.6,26.5-40.7,26.6-25,0-40.8-21.7-41.2-45l103.8-.3ZM396.4,151.5c3.1-19.5,18.2-34.1,38.6-34.1,21,0,34.4,13.6,37.6,33.9l-76.2.2Z"/>
        <path id="Trazado_8" class="cls-1" d="M592.5,117.9c-6.6-14.6-21.3-24-37.4-23.8-22-.2-40,17.5-40.1,39.5,0,0,0,.2,0,.2,0,18.6,11.2,26.2,26.4,34.3l25.7,13.6c6.1,4.1,9.7,7.5,9.7,14.8,0,11.6-9.6,19.3-20.7,19.3-12.5,0-19.3-7.2-24.8-17.4l-22.4,10.3c7.3,19.2,27.5,30.5,47.3,30.5,25.4,0,46.9-19.4,46.8-45.3,0-21.6-15.6-31.4-31.6-38.7-16-7.2-31.8-12.4-31.8-24.4.4-7.6,6.6-13.5,14.2-13.5,7.6.3,14.4,5,17.5,11.9l21.2-11.4Z"/>
        <path id="Trazado_9" class="cls-1" d="M360.3,220.9l-2.8,18.6c-.7.1-2.6.2-5.5.3-2.8.1-5.4.2-7.5.2-21.7,0-38.1-4-49.2-12.3-11.1-8.4-16.7-21.2-16.8-38.5,0-10.8.7-141.2.7-141.2h23.8c0,0,.1,43.1.1,43.1l56.8-.2v24.4c0,0-56.7.2-56.7.2,0,2.1-.3,61.7-.3,69.9,0,12.7,3.8,21.9,11.2,27.5,7.4,5.5,18.8,8.3,34.3,8.2h6.8c1.7,0,3.4-.2,5.1-.2"/>
        <path id="Trazado_10" class="cls-1" d="M72,25.5l.6,211h26.2c0,0-.2-62.6-.2-62.6,0-17-.2-54.4,33.6-54.5,26.8,0,30,15.6,30.1,38.9l.2,78h26.2c0,0-.2-81.2-.2-81.2,0-33.2-10-59.1-48.5-59-16.6,0-32.9,8-41,22.5h-.6l-.3-93.2h-26.2Z"/>
      </g>
    </g>
  </g>
</svg>